# Blender v2.78 (sub 0) OBJ File: ''
# www.blender.org
mtllib cube.mtl
o Cube.001
v 20.000000 -5.000000 0.999999
v 19.910040 -4.998355 -1.004230
v 19.999979 5.000000 1.000002
v -20.000000 -5.000000 -1.000001
v -20.000000 -5.000000 0.999999
v -20.000000 5.000000 1.000001
v -20.000000 5.000000 -0.999999
v 20.000000 5.000000 -0.999998
vn 0.9990 0.0000 -0.0448
vn 0.9992 -0.0011 -0.0392
vn 1.0000 -0.0079 -0.0056
vn -1.0000 -0.0000 0.0000
vn -0.0001 0.0000 -1.0000
vn -0.0001 0.0001 -1.0000
vn -0.0000 0.0004 -1.0000
vn 1.0000 -0.0090 0.0000
vn 0.0000 1.0000 0.0000
vn -0.0000 -0.0000 1.0000
vn 0.0000 -1.0000 -0.0008
vn 0.0000 -1.0000 -0.0000
usemtl Material.001
s 1
f 1//1 2//2 3//3
f 4//4 5//4 6//4
f 4//5 7//6 2//7
f 8//8 3//3 2//2
f 7//9 6//9 8//9
f 3//9 8//9 6//9
f 6//10 5//10 3//10
f 5//10 1//10 3//10
f 1//11 5//12 2//11
f 4//12 2//11 5//12
f 7//4 4//4 6//4
f 8//7 2//7 7//6
